<?xml version="1.0" standalone="no"?><!DOCTYPE svg PUBLIC "-//W3C//DTD SVG 1.1//EN" "http://www.w3.org/Graphics/SVG/1.1/DTD/svg11.dtd"><svg t="1538539619481" class="icon" style="" viewBox="0 0 1024 1024" version="1.1" xmlns="http://www.w3.org/2000/svg" p-id="11383" xmlns:xlink="http://www.w3.org/1999/xlink" width="48" height="48"><defs><style type="text/css"></style></defs><path d="M861 108 163 108c-21.333 0-40.833 5.333-58.5 16s-31.667 24.833-42 42.5S47 203.667 47 225l0 558c0 32 11.333 59.5 34 82.5s50 34.5 82 34.5l698 0c21.333 0 40.833-5.333 58.5-16s31.667-24.833 42-42.5S977 804.333 977 783L977 225c0-32-11.333-59.5-34-82.5S893 108 861 108zM931 783c0 19.333-6.833 35.833-20.5 49.5S880.333 853 861 853L163 853c-12.667 0-24.333-3.167-35-9.5s-19.167-14.833-25.5-25.5S93 795.667 93 783L93 225c0-19.333 6.833-35.833 20.5-49.5S143.667 155 163 155l698 0c9.333 0 18.333 1.833 27 5.5s16.167 8.667 22.5 15 11.333 13.833 15 22.5 5.5 17.667 5.5 27L931 783zM186 690l256 0 0-46L186 644 186 690zM186 527l256 0 0-46L186 481 186 527zM186 364l256 0 0-46L186 318 186 364zM749 523c28-23.333 42-53 42-89 0-32-11.333-59.333-34-82s-50-34-82-34c-21.333 0-40.833 5.167-58.5 15.5s-31.667 24.5-42 42.5S559 413.333 559 434c0 36 13.667 65.667 41 89-26.667 14-48 33.833-64 59.5s-24 53.833-24 84.5c0 6.667 2.333 12.167 7 16.5s10.167 6.5 16.5 6.5 11.833-2.167 16.5-6.5 7-9.833 7-16.5c0-32 11.333-59.333 34-82s50-34 82-34c21.333 0 40.833 5.167 58.5 15.5s31.667 24.333 42 42S791 645.667 791 667c0 6.667 2.333 12.167 7 16.5s10.167 6.5 16.5 6.5 11.833-2.167 16.5-6.5 7-9.833 7-16.5c0-20.667-3.833-40.333-11.5-59s-18-35.333-31-50S767 531.667 749 523zM675 504c-9.333 0-18.333-1.833-27-5.5-8.667-3.667-16.167-8.667-22.5-15s-11.333-13.833-15-22.5-5.5-17.667-5.5-27c0-19.333 6.833-35.833 20.5-49.5S655.667 364 675 364c9.333 0 18.333 1.833 27 5.5s16.167 8.667 22.5 15 11.333 13.833 15 22.5 5.5 17.667 5.5 27c0 19.333-6.833 35.833-20.5 49.5C710.833 497.167 694.333 504 675 504z" p-id="11384" fill="#808089"></path></svg>