<?xml version="1.0" standalone="no"?><!DOCTYPE svg PUBLIC "-//W3C//DTD SVG 1.1//EN" "http://www.w3.org/Graphics/SVG/1.1/DTD/svg11.dtd"><svg t="1538461707360" class="icon" style="" viewBox="0 0 1024 1024" version="1.1" xmlns="http://www.w3.org/2000/svg" p-id="6643" xmlns:xlink="http://www.w3.org/1999/xlink" width="36" height="28"><defs><style type="text/css"></style></defs><path d="M837.2 844.4 837.2 178.3c-8.5-63.1-52-80-83.2-83.8L276.9 94.5c-64.5 7.3-87.9 47.8-95.8 83.4l0.9 666.5-133.4 1.2 0 81.5 927 2.4-3.3-83.9L837.2 844.4zM326.1 209.2l128.1-0.4-0.3 138.1-128.2 0.4L326.1 209.2zM455.1 435.9 454.8 574l-128.2 0.4 0.4-138.1L455.1 435.9zM456.1 848.5 325 848.9l1.1-184.3 130.7-1.3L456.1 848.5zM701.2 801.5 573 801.9l0.4-138.2 128.1-0.4L701.2 801.5zM701.2 574 573 574.4l0.4-138.1 128.1-0.4L701.2 574zM701.2 346.9 573 347.3l0.4-138.1 128.1-0.4L701.2 346.9z" p-id="6644" fill="#808089"></path></svg>
