<?xml version="1.0" standalone="no"?><!DOCTYPE svg PUBLIC "-//W3C//DTD SVG 1.1//EN" "http://www.w3.org/Graphics/SVG/1.1/DTD/svg11.dtd"><svg t="1538461929654" class="icon" style="" viewBox="0 0 1024 1024" version="1.1" xmlns="http://www.w3.org/2000/svg" p-id="7530" xmlns:xlink="http://www.w3.org/1999/xlink" width="36" height="28"><defs><style type="text/css"></style></defs><path d="M958.502263 900.868635c0 31.973202-25.918299 57.889455-57.888432 57.889455L186.695053 958.75809c-31.972179 0-57.888432-25.916253-57.888432-57.889455L128.806621 123.130342c0-31.971156 25.917276-57.888432 57.888432-57.888432l713.917756 0c31.973202 0 57.888432 25.917276 57.888432 57.888432L958.50124 900.868635 958.502263 900.868635M894.679679 186.951903c0-31.972179-25.919323-57.890478-57.890478-57.890478L250.51866 129.061424c-31.972179 0-57.888432 25.917276-57.888432 57.890478l0 650.096195c0 31.973202 25.917276 57.888432 57.888432 57.888432l586.271564 0c31.973202 0 57.890478-25.918299 57.890478-57.888432L894.680702 186.951903M192.628182 192.887079l-63.822584 0 0 638.228913 63.822584 0L192.628182 192.887079M699.871855 513.070378 699.871855 513.070378zM419.104263 343.249645c0 15.509229-12.57234 28.081569-28.081569 28.081569l-112.328321 0c-15.509229 0-28.082592-12.57234-28.082592-28.081569l0 0c0-15.509229 12.57234-28.080545 28.082592-28.080545l112.328321 0C406.531923 315.169099 419.104263 327.742463 419.104263 343.249645L419.104263 343.249645M419.104263 511.742127c0 15.509229-12.57234 28.081569-28.081569 28.081569l-112.328321 0c-15.509229 0-28.082592-12.57234-28.082592-28.081569l0 0c0-15.509229 12.57234-28.081569 28.082592-28.081569l112.328321 0C406.531923 483.660558 419.104263 496.232898 419.104263 511.742127L419.104263 511.742127M419.104263 680.234609c0 15.510252-12.57234 28.083615-28.081569 28.083615l-112.328321 0c-15.509229 0-28.082592-12.573363-28.082592-28.083615l0 0c0-15.509229 12.57234-28.082592 28.082592-28.082592l112.328321 0C406.531923 652.152017 419.104263 664.72538 419.104263 680.234609L419.104263 680.234609M719.598128 537.015743c26.848485-20.465101 44.246737-52.67878 44.246737-88.946798 0-61.72583-50.217728-111.964024-111.965048-111.964024-61.742203 0-111.963001 50.219775-111.963001 111.964024 0 36.268018 17.414625 68.479651 44.25083 88.946798-67.187215 26.942629-114.821095 92.64605-114.821095 169.334663l36.205597 0c0-80.69588 65.637929-146.31846 146.328693-146.31846 80.694857 0 146.332786 65.62258 146.332786 146.31846l36.205597 0C834.431503 629.66384 786.798647 563.976792 719.598128 537.015743L719.598128 537.015743M651.898237 372.311541c41.775452 0 75.758428 33.985022 75.758428 75.758428 0 41.759079-33.981952 75.744101-75.758428 75.744101-41.774429 0-75.776847-33.985022-75.776847-75.744101C576.139809 406.297586 610.123808 372.311541 651.898237 372.311541L651.898237 372.311541M521.504468 353.297488 521.504468 353.297488zM192.628182 192.887079l-63.822584 0 0 638.228913 63.822584 0L192.628182 192.887079z" p-id="7531" fill="#808089"></path></svg>
