<?xml version="1.0" standalone="no"?><!DOCTYPE svg PUBLIC "-//W3C//DTD SVG 1.1//EN" "http://www.w3.org/Graphics/SVG/1.1/DTD/svg11.dtd"><svg t="1538540179242" class="icon" style="" viewBox="0 0 1024 1024" version="1.1" xmlns="http://www.w3.org/2000/svg" p-id="11796" xmlns:xlink="http://www.w3.org/1999/xlink" width="54" height="54"><defs><style type="text/css"></style></defs><path d="M858.3 172.8h-692C110.1 172.8 64 218 64 274.2v480.3C64 810.2 109.6 856 166.3 856h692c56.2 0 102.3-45.2 102.3-101.4V273.8c0.1-55.8-45.6-101-102.3-101z m-148.4 152c55.2 0 100.4 44.8 100.4 99.5 0 54.8-45.1 99.5-100.4 99.5-55.2 0-100.4-44.8-100.4-99.5s45.2-99.5 100.4-99.5zM454.9 673H217.7c-13.9 0-25.5-11.4-25.5-25.2 0-13.8 11.5-25.2 25.5-25.2h236.7c13.9 0 25.5 11.4 25.5 25.2 0 13.7-11.1 25.2-25 25.2z m0-142.9H217.7c-13.9 0-25.5-11.4-25.5-25.2 0-13.8 11.5-25.2 25.5-25.2h236.7c13.9 0 25.5 11.4 25.5 25.2 0 13.8-11.1 25.2-25 25.2z m0-134.3H217.7c-13.9 0-25.5-11.4-25.5-25.2 0-13.8 11.5-25.2 25.5-25.2h236.7c13.9 0 25.5 11.4 25.5 25.2 0 13.8-11.1 25.2-25 25.2z m255 286.7c-106.1 0-153.2-23.8-153.2-32.9 0-13.3 3.8-28.1 10.1-42.4 23.5-55.7 78.3-86.2 134.5-80 3.4 0.5 6.2 0.5 9.6 0.5 2.4 0 5.3 0 7.7-0.5 56.7-4.8 111.9 25.2 135 81.4 5.8 14.3 9.6 28.6 9.6 41.4 0.4 9.1-47.1 32.5-153.3 32.5z" p-id="11797" fill="#808089"></path></svg>