<?xml version="1.0" standalone="no"?><!DOCTYPE svg PUBLIC "-//W3C//DTD SVG 1.1//EN" "http://www.w3.org/Graphics/SVG/1.1/DTD/svg11.dtd"><svg t="1541235324461" class="icon" style="" viewBox="0 0 1024 1024" version="1.1" xmlns="http://www.w3.org/2000/svg" p-id="1708" xmlns:xlink="http://www.w3.org/1999/xlink" width="40" height="28"><defs><style type="text/css"></style></defs><path d="M512 512m-447.6 0a447.6 447.6 0 1 0 895.2 0 447.6 447.6 0 1 0-895.2 0Z" fill="#15C7A9" p-id="1709"></path><path d="M506.3 690.8H341.5c-9.1 0-16.5-7.4-16.5-16.5V344.6c0-9.1 7.4-16.5 16.5-16.5h329.6c9.1 0 16.5 7.4 16.5 16.5v164.8c0 9.1 7.4 16.5 16.5 16.5s16.5-7.4 16.5-16.5V344.6c0-27.3-22.2-49.4-49.4-49.4H341.5c-27.3 0-49.4 22.2-49.4 49.4v329.7c0 27.3 22.2 49.4 49.4 49.4h164.7c9.1 0 16.5-7.4 16.5-16.5s-7.3-16.4-16.4-16.4z" fill="#FFFFFF" p-id="1710"></path><path d="M727.1 700.7L676.4 650c21.2-32 17.7-75.6-10.5-103.7-32.1-32.1-84.4-32.1-116.5 0s-32.1 84.4 0 116.5c16.1 16.1 37.2 24.1 58.3 24.1 15.9 0 31.7-4.6 45.4-13.6l50.7 50.7c3.2 3.2 7.4 4.8 11.7 4.8s8.4-1.6 11.7-4.8c3.2-3.2 4.8-7.4 4.8-11.7s-1.7-8.4-4.9-11.6z m-154.4-61.2c-19.3-19.3-19.3-50.7 0-69.9 9.6-9.6 22.3-14.5 35-14.5s25.3 4.8 35 14.5c19.3 19.3 19.3 50.7 0 69.9-19.4 19.3-50.8 19.3-70 0zM641.8 350.8l-94.7 118.4-125.2 15.6c-6 0.8-11.2 4.8-13.3 10.4l-41.2 107.1c-3.3 8.5 1 18 9.5 21.3 1.9 0.7 4 1.1 5.9 1.1 6.6 0 12.9-4 15.4-10.6l37.7-97.9L558 501c4.3-0.5 8.1-2.7 10.8-6.1l98.9-123.6c5.7-7.1 4.5-17.5-2.6-23.2-7.2-5.5-17.6-4.4-23.3 2.7z" fill="#FFFFFF" p-id="1711"></path></svg>
