<?xml version="1.0" standalone="no"?><!DOCTYPE svg PUBLIC "-//W3C//DTD SVG 1.1//EN" "http://www.w3.org/Graphics/SVG/1.1/DTD/svg11.dtd"><svg t="1538552531045" class="icon" style="" viewBox="0 0 1024 1024" version="1.1" xmlns="http://www.w3.org/2000/svg" p-id="1941" xmlns:xlink="http://www.w3.org/1999/xlink" width="36" height="26"><defs><style type="text/css"></style></defs><path d="M482.249 677.727l441.76-441.762c14.355-14.356 14.355-37.629 0-51.985l-51.968-51.968c-14.355-14.356-37.647-14.356-52.002 0l-441.76 441.78 103.972 103.936zM326.31 625.759c-28.711 28.694-54.695 101.226-25.984 129.937 28.711 28.695 101.243 2.727 129.919-25.983l26.020-26.002-103.972-103.934-25.984 25.984z" fill="#808089" p-id="1942"></path><path d="M856.429 842.765c0 20.276-16.437 36.751-36.751 36.751h-624.759c-20.314 0-36.752-16.474-36.752-36.751v-661.513c0-20.315 16.437-36.751 36.752-36.751h477.756v-73.502h-514.508c-40.591 0-73.501 32.911-73.501 73.501v735.014c0 40.59 32.911 73.483 73.501 73.483h698.261c40.592 0 73.501-32.895 73.501-73.483v-441.008h-73.501v404.259z" fill="#808089" p-id="1943"></path></svg>
