<?xml version="1.0" standalone="no"?><!DOCTYPE svg PUBLIC "-//W3C//DTD SVG 1.1//EN" "http://www.w3.org/Graphics/SVG/1.1/DTD/svg11.dtd"><svg t="1538538447349" class="icon" style="" viewBox="0 0 1024 1024" version="1.1" xmlns="http://www.w3.org/2000/svg" p-id="5998" xmlns:xlink="http://www.w3.org/1999/xlink" width="36" height="26"><defs><style type="text/css"></style></defs><path d="M512 886.612c-215.040 0-389.12-176.64-389.12-391.68s174.080-389.12 389.12-389.12 391.68 174.080 391.68 389.12-176.64 391.68-391.68 391.68zM512 144.212c-194.56 0-350.72 156.16-350.72 350.72s156.16 353.28 350.72 353.28 353.28-158.72 353.28-353.28-158.72-350.72-353.28-350.72z" p-id="5999" fill="#808089"></path><path d="M532.48 651.092h-38.4v-7.68c0-56.32 30.72-107.52 79.36-140.8 33.28-20.48 53.76-58.88 53.76-99.84 0-61.44-53.76-112.64-112.64-112.64-30.72 0-61.44 10.24-81.92 33.28-23.040 23.040-33.28 51.2-33.28 81.92h-40.96c0-40.96 15.36-79.36 46.080-110.080 30.72-28.16 69.12-43.52 110.080-43.52 81.92 0 151.040 69.12 151.040 151.040 0 53.76-25.6 102.4-71.68 130.56-38.4 25.6-64 64-64 107.52v10.24z" p-id="6000" fill="#808089"></path><path d="M494.080 679.252h38.4v35.84h-38.4v-35.84z" p-id="6001" fill="#808089"></path></svg>
