<?xml version="1.0" standalone="no"?><!DOCTYPE svg PUBLIC "-//W3C//DTD SVG 1.1//EN" "http://www.w3.org/Graphics/SVG/1.1/DTD/svg11.dtd"><svg t="1538539244678" class="icon" style="" viewBox="0 0 1024 1024" version="1.1" xmlns="http://www.w3.org/2000/svg" p-id="6413" xmlns:xlink="http://www.w3.org/1999/xlink" width="36" height="26"><defs><style type="text/css"></style></defs><path d="M0 513.344a512.896 512.896 0 0 1 510.656-513.408 513.024 513.024 0 0 1 513.408 507.904 512.64 512.64 0 0 1-510.656 516.096h-1.152a512.832 512.832 0 0 1-512.256-510.592z m511.36-425.472a426.048 426.048 0 0 0-425.024 428.032 425.728 425.728 0 0 0 427.008 425.856 427.712 427.712 0 0 0 427.392-426.432 428.032 428.032 0 0 0-428.288-427.456z m-75.072 701.696v-114.624h111.488v114.624z m10.816-167.232a152.64 152.64 0 0 1 46.336-146.176 477.056 477.056 0 0 0 44.8-45.44 124.544 124.544 0 0 0 20.8-38.848 62.848 62.848 0 0 0-28.48-74.368 63.296 63.296 0 0 0-77.824 17.856 145.088 145.088 0 0 0-19.2 33.6 361.984 361.984 0 0 0-12.032 37.568l-103.424-25.024a179.2 179.2 0 0 1 100.48-151.808 209.472 209.472 0 0 1 205.184 12.288 149.376 149.376 0 0 1 35.648 197.184 289.408 289.408 0 0 1-58.048 62.976c-37.44 31.296-72.96 61.952-64.384 120.32z" p-id="6414" fill="#808089"></path></svg>
