<?xml version="1.0" standalone="no"?><!DOCTYPE svg PUBLIC "-//W3C//DTD SVG 1.1//EN" "http://www.w3.org/Graphics/SVG/1.1/DTD/svg11.dtd"><svg t="1538537827554" class="icon" style="" viewBox="0 0 1024 1024" version="1.1" xmlns="http://www.w3.org/2000/svg" p-id="3761" xmlns:xlink="http://www.w3.org/1999/xlink" width="36" height="26"><defs><style type="text/css"></style></defs><path d="M803.328 46.08H221.696C145.92 46.08 84.992 107.008 84.992 182.784v756.224c0 37.888 28.672 58.368 64.512 46.08l363.008-125.44 363.008 125.44c35.328 12.288 64.512-8.192 64.512-46.08V182.784c0-75.776-61.44-136.704-136.704-136.704z m82.944 887.808l-356.864-123.392c-11.264-4.096-23.552-4.096-34.816 0L138.24 933.888V184.32c0-46.08 37.376-83.456 83.456-83.456h581.12c46.08 0 83.456 37.376 83.456 83.456v749.568z" p-id="3762" fill="#808089"></path><path d="M734.208 354.816l-30.72-4.608-81.408-11.776-36.352-73.216-13.824-27.648c-28.672-57.344-89.6-57.344-118.272 0l-13.824 27.648-36.352 73.216-81.408 11.776-30.72 4.608c-64 9.216-82.432 67.072-36.352 112.128l22.016 21.504 58.88 56.832-13.824 79.872-5.12 29.696c-11.264 63.488 38.4 99.84 95.744 70.144l27.648-14.336 72.704-37.888 72.704 37.888 27.648 14.336c57.344 29.696 106.496-6.144 95.744-70.144l-5.12-29.696-13.824-79.872 58.88-56.832 22.016-21.504c45.568-45.056 27.136-102.912-36.864-112.128z m-8.192 64.512l-22.016 21.504-71.168 68.608-12.288 11.776L640 634.88l5.12 29.696c0.512 1.536 0.512 2.56 0.512 3.584l-3.072-1.536-27.648-14.336-87.552-45.568-14.848-7.68-102.4 53.248-27.648 14.336-3.072 1.536c0-1.024 0.512-2.56 0.512-3.584l5.12-29.696 16.896-96.768 3.072-16.896-83.968-80.384-22.016-21.504-2.048-2.048c1.024 0 1.536-0.512 2.56-0.512l30.72-4.608 98.304-14.336 16.896-2.56 51.2-102.912 13.824-27.648c0.512-1.024 1.024-2.56 1.536-3.072l1.536 3.072 13.824 27.648 44.032 88.064 7.68 15.36 114.688 16.384 30.72 4.608c1.024 0 2.048 0.512 2.56 0.512 0 0.512-0.512 1.536-1.024 2.048z" p-id="3763" fill="#808089"></path></svg>
