<?xml version="1.0" standalone="no"?><!DOCTYPE svg PUBLIC "-//W3C//DTD SVG 1.1//EN" "http://www.w3.org/Graphics/SVG/1.1/DTD/svg11.dtd"><svg t="1538644661960" class="icon" style="" viewBox="0 0 1024 1024" version="1.1" xmlns="http://www.w3.org/2000/svg" p-id="3477" xmlns:xlink="http://www.w3.org/1999/xlink" width="36" height="32"><defs><style type="text/css"></style></defs><path d="M512 68.224c-245.0944 0-443.776 198.68672-443.776 443.776S266.91072 955.78112 512 955.78112c245.0944 0 443.78112-198.69184 443.78112-443.78112 0-245.0944-198.69184-443.776-443.78112-443.776z m263.48032 477.056c0 12.2624-6.73792 22.19008-15.0784 22.19008H485.49888c-3.6096 0-6.91712-1.85856-9.51808-4.96128-3.57376-2.67776-5.77536-6.23104-5.77536-10.1376v-274.8928c0-8.34048 9.94816-15.104 22.23104-15.104h11.12064c12.288 0 22.22592 6.76352 22.22592 15.104V512h234.61888c8.33024 0 15.0784 9.93792 15.0784 22.19008v11.08992z" fill="#808089" p-id="3478"></path></svg>
