<?xml version="1.0" standalone="no"?><!DOCTYPE svg PUBLIC "-//W3C//DTD SVG 1.1//EN" "http://www.w3.org/Graphics/SVG/1.1/DTD/svg11.dtd"><svg t="1538623960542" class="icon" style="" viewBox="0 0 1024 1024" version="1.1" xmlns="http://www.w3.org/2000/svg" p-id="1951" xmlns:xlink="http://www.w3.org/1999/xlink" width="25" height="25"><defs><style type="text/css"></style></defs><path d="M955.7 887.9l-213-201.3c48.2-63.2 77.2-141.8 77.2-227.3 0-207.2-168.6-375.8-375.8-375.8S68.3 252.1 68.3 459.3s168.6 375.8 375.8 375.8c94.3 0 180-34.9 246.1-92.5l0.3-0.2 209.5 198h0.1l55.6-52.5zM444.1 749.4C284.2 749.4 154 619.3 154 459.3c0-159.9 130.1-290.1 290.1-290.1 160 0 290.1 130.1 290.1 290.1 0 160-130.1 290.1-290.1 290.1z" fill="#ffffff" p-id="1952"></path></svg>
